<?xml version="1.0" encoding="UTF-8"?>
<svg width="80px" height="80px" viewBox="0 0 80 80" version="1.1" xmlns="http://www.w3.org/2000/svg" xmlns:xlink="http://www.w3.org/1999/xlink">
    <!-- Generator: Sketch 51.3 (57544) - http://www.bohemiancoding.com/sketch -->
    <title>phone copy</title>
    <desc>Created with Sketch.</desc>
    <defs></defs>
    <g id="phone-copy" stroke="none" stroke-width="1" fill="none" fill-rule="evenodd">
        <path d="M58.6060606,74.125 C58.6060606,76.1408125 56.9564175,77.78125 54.9292929,77.78125 L25.5151515,77.78125 C23.4880269,77.78125 21.8383838,76.1408125 21.8383838,74.125 L21.8383838,5.875 C21.8383838,3.8591875 23.4880269,2.21875 25.5151515,2.21875 L54.9292929,2.21875 C56.9564175,2.21875 58.6060606,3.8591875 58.6060606,5.875 L58.6060606,74.125 Z M59.8316498,16.84375 L59.8316498,5.875 C59.8316498,3.19375 57.6255892,1 54.9292929,1 L25.5151515,1 C22.8188552,1 20.6127946,3.19375 20.6127946,5.875 L20.6127946,10.75 C20.2757576,10.75 20,11.0242187 20,11.359375 L20,12.578125 C20,12.9132812 20.2757576,13.1875 20.6127946,13.1875 L20.6127946,16.84375 C20.2757576,16.84375 20,17.1179687 20,17.453125 L20,21.109375 C20,21.4445312 20.2757576,21.71875 20.6127946,21.71875 L20.6127946,22.9375 C20.2757576,22.9375 20,23.2117187 20,23.546875 L20,27.203125 C20,27.5382812 20.2757576,27.8125 20.6127946,27.8125 L20.6127946,74.125 C20.6127946,76.80625 22.8188552,79 25.5151515,79 L54.9292929,79 C57.6255892,79 59.8316498,76.80625 59.8316498,74.125 L59.8316498,22.9375 C60.1686869,22.9375 60.4444444,22.6632812 60.4444444,22.328125 L60.4444444,17.453125 C60.4444444,17.1179687 60.1686869,16.84375 59.8316498,16.84375 L59.8316498,16.84375 Z M33.7878788,6.484375 C33.9570101,6.484375 34.0942761,6.347875 34.0942761,6.1796875 C34.0942761,6.0115 33.9570101,5.875 33.7878788,5.875 C33.6187475,5.875 33.4814815,6.0115 33.4814815,6.1796875 C33.4814815,6.347875 33.6187475,6.484375 33.7878788,6.484375 L33.7878788,6.484375 Z M35.6262626,6.484375 L44.8181818,6.484375 C44.9867003,6.484375 45.1245791,6.34726562 45.1245791,6.1796875 C45.1245791,6.01210938 44.9867003,5.875 44.8181818,5.875 L35.6262626,5.875 C35.4577441,5.875 35.3198653,6.01210938 35.3198653,6.1796875 C35.3198653,6.34726562 35.4577441,6.484375 35.6262626,6.484375 L35.6262626,6.484375 Z M40.2222222,75.953125 C39.2086599,75.953125 38.3838384,75.1329063 38.3838384,74.125 C38.3838384,73.1170937 39.2086599,72.296875 40.2222222,72.296875 C41.2357845,72.296875 42.0606061,73.1170937 42.0606061,74.125 C42.0606061,75.1329063 41.2357845,75.953125 40.2222222,75.953125 L40.2222222,75.953125 Z M40.2222222,71.6875 C38.8685589,71.6875 37.7710438,72.7788906 37.7710438,74.125 C37.7710438,75.4711094 38.8685589,76.5625 40.2222222,76.5625 C41.5758855,76.5625 42.6734007,75.4711094 42.6734007,74.125 C42.6734007,72.7788906 41.5758855,71.6875 40.2222222,71.6875 L40.2222222,71.6875 Z M56.7676768,68.0434375 C56.7676768,69.0446406 55.9483704,69.859375 54.9415488,69.859375 L25.5028956,69.859375 C24.4960741,69.859375 23.6767677,69.0446406 23.6767677,68.0434375 L23.6767677,12.5659375 C23.6767677,11.5647344 24.4960741,10.75 25.5028956,10.75 L54.9415488,10.75 C55.9483704,10.75 56.7676768,11.5647344 56.7676768,12.5659375 L56.7676768,68.0434375 Z M54.9415488,10.140625 L25.5028956,10.140625 C24.1559731,10.140625 23.0639731,11.2265312 23.0639731,12.5659375 L23.0639731,68.0434375 C23.0639731,69.3828437 24.1559731,70.46875 25.5028956,70.46875 L54.9415488,70.46875 C56.2884714,70.46875 57.3804714,69.3828437 57.3804714,68.0434375 L57.3804714,12.5659375 C57.3804714,11.2265312 56.2884714,10.140625 54.9415488,10.140625 L54.9415488,10.140625 Z" id="iPhone" fill="#5A5A5A"></path>
    </g>
</svg>