<?xml version="1.0" encoding="UTF-8"?>
<svg width="80px" height="80px" viewBox="0 0 80 80" version="1.1" xmlns="http://www.w3.org/2000/svg" xmlns:xlink="http://www.w3.org/1999/xlink">
    <!-- Generator: Sketch 51.3 (57544) - http://www.bohemiancoding.com/sketch -->
    <title>award copy</title>
    <desc>Created with Sketch.</desc>
    <defs></defs>
    <g id="award-copy" stroke="none" stroke-width="1" fill="none" fill-rule="evenodd">
        <g id="Group" transform="translate(12.000000, 2.000000)" fill-rule="nonzero" stroke="#5A5A5A">
            <polygon id="Star" stroke-width="1.5" points="27.9259259 52.0240561 20.6981644 54.6354781 15.7340464 48.7310125 8.17931433 47.3496626 6.80897111 39.7342503 0.951552851 34.73026 3.54216683 27.4444444 0.951552851 20.1586289 6.80897111 15.1546386 8.17931433 7.53922629 15.7340464 6.15787635 20.6981644 0.253410784 27.9259259 2.86483281 35.1536874 0.253410784 40.1178055 6.15787635 47.6725375 7.53922629 49.0428807 15.1546386 54.900299 20.1586289 52.309685 27.4444444 54.900299 34.73026 49.0428807 39.7342503 47.6725375 47.3496626 40.1178055 48.7310125 35.1536874 54.6354781"></polygon>
            <circle id="Oval" cx="27.9259259" cy="26.962963" r="19.2592593"></circle>
            <path d="M12.4436395,48.1481481 L6.29704606,71.2060439 C6.15478998,71.7396933 6.47207694,72.2876229 7.00572631,72.429879 C7.21689446,72.4861706 7.44068933,72.471736 7.64287633,72.3887833 L17.2417591,68.4505831 L22.0718987,75.8695556 C22.3732297,76.3323925 22.9927103,76.4633189 23.4555472,76.1619878 C23.6882399,76.0104927 23.847469,75.7690702 23.8951097,75.495525 L27.9259259,52.3512374" id="Path-2" stroke-width="1.5"></path>
            <path d="M33.7472034,48 L27.0941911,72.0332827 C26.9468463,72.5655495 27.2588873,73.1164836 27.7911542,73.2638283 C28.0006118,73.3218114 28.2232577,73.3099781 28.4253893,73.2301197 L38.921507,69.0832978 L44.2506974,76.9656332 C44.5600291,77.4231617 45.1816922,77.5432989 45.6392207,77.2339671 C45.8623729,77.0830955 46.0152218,76.8485778 46.0631617,76.58351 L50.4433377,52.3647465" id="Path-2" stroke-width="1.5" transform="translate(38.750515, 62.702819) scale(-1, 1) translate(-38.750515, -62.702819) "></path>
        </g>
    </g>
</svg>