<?xml version="1.0" encoding="UTF-8"?>
<svg width="80px" height="80px" viewBox="0 0 80 80" version="1.1" xmlns="http://www.w3.org/2000/svg" xmlns:xlink="http://www.w3.org/1999/xlink">
    <!-- Generator: Sketch 51.3 (57544) - http://www.bohemiancoding.com/sketch -->
    <title>mac copy</title>
    <desc>Created with Sketch.</desc>
    <defs></defs>
    <g id="mac-copy" stroke="none" stroke-width="1" fill="none" fill-rule="evenodd">
        <path d="M68.5365854,55.2604327 C68.5365854,55.933764 67.9919616,56.4813417 67.3222626,56.4813417 L12.6777374,56.4813417 C12.0080384,56.4813417 11.4634146,55.933764 11.4634146,55.2604327 L11.4634146,21.0749818 C11.4634146,20.4016506 12.0080384,19.8540729 12.6777374,19.8540729 L67.3222626,19.8540729 C67.9919616,19.8540729 68.5365854,20.4016506 68.5365854,21.0749818 L68.5365854,55.2604327 Z M67.1840701,19.3783941 L12.3403201,19.3783941 C11.3305857,19.3783941 10.5121951,20.1923956 10.5121951,21.1967147 L10.5121951,55.1386998 C10.5121951,56.1430189 11.3305857,56.9570205 12.3403201,56.9570205 L67.1840701,56.9570205 C68.1938045,56.9570205 69.0121951,56.1430189 69.0121951,55.1386998 L69.0121951,21.1967147 C69.0121951,20.1923956 68.1938045,19.3783941 67.1840701,19.3783941 L67.1840701,19.3783941 Z M78.0487805,60.5246116 C78.0487805,61.1804538 77.5017411,61.7138086 76.8290716,61.7138086 L3.64653816,61.7138086 C2.97386871,61.7138086 2.42682927,61.1804538 2.42682927,60.5246116 L2.42682927,59.3354145 L8.52537372,59.3354145 L35.3589693,59.3354145 C35.3589693,59.9894729 35.9078383,60.5246116 36.5786782,60.5246116 L43.8969315,60.5246116 C44.5677714,60.5246116 45.1166404,59.9894729 45.1166404,59.3354145 L71.950236,59.3354145 L78.0487805,59.3354145 L78.0487805,60.5246116 Z M9.56097561,20.848674 C9.56097561,19.5131409 10.6531278,18.4270364 11.9960976,18.4270364 L68.0039024,18.4270364 C69.3468722,18.4270364 70.4390244,19.5131409 70.4390244,20.848674 L70.4390244,58.3840569 L9.56097561,58.3840569 L9.56097561,20.848674 Z M71.6875,58.283914 L71.6875,20.6426983 C71.6875,18.6392142 70.0421875,17 68.03125,17 L11.96875,17 C9.9578125,17 8.3125,18.6392142 8.3125,20.6426983 L8.3125,58.283914 L1,58.283914 L1,60.7123795 C1,62.0480356 2.096875,63.1408451 3.4375,63.1408451 L76.5625,63.1408451 C77.903125,63.1408451 79,62.0480356 79,60.7123795 L79,58.283914 L71.6875,58.283914 Z" id="MacBook-Pro" fill="#5A5A5A"></path>
    </g>
</svg>