<?xml version="1.0" encoding="UTF-8"?>
<svg width="80px" height="80px" viewBox="0 0 80 80" version="1.1" xmlns="http://www.w3.org/2000/svg" xmlns:xlink="http://www.w3.org/1999/xlink">
    <!-- Generator: Sketch 51.3 (57544) - http://www.bohemiancoding.com/sketch -->
    <title>watch copy</title>
    <desc>Created with Sketch.</desc>
    <defs></defs>
    <g id="watch-copy" stroke="none" stroke-width="1" fill="none" fill-rule="evenodd">
        <path d="M58.8571429,55.84375 C58.8571429,59.8759844 55.5248095,63.15625 51.4285714,63.15625 L26.6666667,63.15625 C22.5704286,63.15625 19.2380952,59.8759844 19.2380952,55.84375 L19.2380952,24.15625 C19.2380952,20.1240156 22.5704286,16.84375 26.6666667,16.84375 L51.4285714,16.84375 C55.5248095,16.84375 58.8571429,20.1240156 58.8571429,24.15625 L58.8571429,55.84375 Z M51.4285714,69.25 L51.4285714,73.7605938 C51.4285714,76.1706719 50.6498095,76.3900469 46.496619,77.1017969 C46.4093333,77.1115469 46.2979048,77.1304375 46.106619,77.1627344 C45.1972381,77.3156875 42.4294762,77.78125 39.047619,77.78125 C37.4238571,77.78125 34.8548095,77.6703438 31.8369524,77.1414063 C31.7515238,77.1261719 31.689,77.1152031 31.637,77.1078906 C27.3556667,76.2821875 26.6666667,75.9817656 26.6666667,73.7605938 L26.6666667,69.25 C26.6666667,67.7302188 26.5329524,66.0002031 25.7882381,64.5474531 L52.3398095,64.5474531 C51.5554762,66.0605312 51.4285714,67.8374688 51.4285714,69.25 L51.4285714,69.25 Z M26.6666667,10.75 L26.6666667,6.23940625 C26.6666667,4.01823437 27.3556667,3.7178125 31.637,2.89210938 C31.689,2.88479688 31.7515238,2.87382812 31.8369524,2.85859375 C34.8548095,2.32965625 37.4238571,2.21875 39.047619,2.21875 C42.4294762,2.21875 45.1972381,2.6843125 46.106619,2.83726562 C46.2979048,2.8695625 46.4093333,2.88845312 46.496619,2.89820313 C50.6460952,3.60873438 51.4285714,3.82323437 51.4285714,6.23940625 L51.4285714,10.75 C51.4285714,12.1625312 51.5554762,13.9394687 52.3398095,15.4525469 L25.7882381,15.4525469 C26.5329524,13.9997969 26.6666667,12.2697813 26.6666667,10.75 L26.6666667,10.75 Z M60.8956667,33.90625 C61.1370952,33.90625 61.3333333,33.7130781 61.3333333,33.4754219 L61.3333333,27.0245781 C61.3333333,26.7869219 61.1370952,26.59375 60.8956667,26.59375 L60.0952381,26.59375 L60.0952381,24.15625 C60.0952381,20.5079219 57.7329524,17.3842656 54.4433333,16.171 C53.1445714,15.0418281 52.6666667,13.1917656 52.6666667,10.75 L52.6666667,6.23940625 C52.6666667,2.7086875 50.681381,2.37779687 46.6575714,1.68859375 C46.483,1.68859375 43.246619,1 39.047619,1 C34.848619,1 31.5249524,1.68859375 31.4376667,1.68859375 C27.4138571,2.46371875 25.4285714,2.88114062 25.4285714,6.23940625 L25.4285714,10.75 C25.4285714,13.1820156 25.0169048,15.025375 23.694,16.1557656 C20.3827143,17.3580625 18,20.4920781 18,24.15625 L18,55.84375 C18,59.5079219 20.3827143,62.6419375 23.694,63.8442344 C25.0169048,64.974625 25.4285714,66.8179844 25.4285714,69.25 L25.4285714,73.7605937 C25.4285714,77.1188594 27.4138571,77.5362812 31.4376667,78.3114062 C31.5249524,78.3114062 34.848619,79 39.047619,79 C43.246619,79 46.483,78.3114062 46.6575714,78.3114062 C50.681381,77.6222031 52.6666667,77.2913125 52.6666667,73.7605937 L52.6666667,69.25 C52.6666667,66.8082344 53.1445714,64.9581719 54.4433333,63.829 C57.7329524,62.6157344 60.0952381,59.4920781 60.0952381,55.84375 L60.0952381,50.96875 L60.7142857,50.96875 C61.056,50.96875 61.3333333,50.69575 61.3333333,50.359375 L61.3333333,41.828125 C61.3333333,41.49175 61.056,41.21875 60.7142857,41.21875 L60.0952381,41.21875 L60.0952381,33.90625 L60.8956667,33.90625 Z M57,55.84375 C57,58.8680781 54.5009048,61.328125 51.4285714,61.328125 L26.6666667,61.328125 C23.5943333,61.328125 21.0952381,58.8680781 21.0952381,55.84375 L21.0952381,24.15625 C21.0952381,21.1319219 23.5943333,18.671875 26.6666667,18.671875 L51.4285714,18.671875 C54.5009048,18.671875 57,21.1319219 57,24.15625 L57,55.84375 Z M51.4285714,18.0625 L26.6666667,18.0625 C23.2476667,18.0625 20.4761905,20.7906719 20.4761905,24.15625 L20.4761905,55.84375 C20.4761905,59.2093281 23.2476667,61.9375 26.6666667,61.9375 L51.4285714,61.9375 C54.8475714,61.9375 57.6190476,59.2093281 57.6190476,55.84375 L57.6190476,24.15625 C57.6190476,20.7906719 54.8475714,18.0625 51.4285714,18.0625 L51.4285714,18.0625 Z" id="Apple-Watch" fill="#5A5A5A"></path>
    </g>
</svg>